<?xml version="1.0" encoding="utf-8"?>
<!-- Generator: Adobe Illustrator 25.4.1, SVG Export Plug-In . SVG Version: 6.00 Build 0)  -->
<svg version="1.1" id="Layer_1" xmlns="http://www.w3.org/2000/svg" xmlns:xlink="http://www.w3.org/1999/xlink" x="0px" y="0px"
	 viewBox="0 0 175.75 226.77" style="enable-background:new 0 0 175.75 226.77;" xml:space="preserve">
<style type="text/css">
	.st0{fill:none;stroke:#000000;stroke-width:2;stroke-miterlimit:10;}
	.st1{fill:#A3A2A2;}
	.st2{fill:none;stroke:#FDFDFD;stroke-width:2;stroke-miterlimit:10;}
</style>
<g>
	<g id="XMLID_00000096757981466704837490000017868402402749397655_">
		<g>
			<path d="M118.65,60.68l16.09,2.49c-12.35,37.9-24.67,75.78-37.02,113.68l-0.59-0.2l-16.23,0.02
				C93.49,138,106.06,99.35,118.65,60.68z"/>
		</g>
		<g>
			<path class="st0" d="M120.27,55.68c-0.54,1.67-1.09,3.34-1.63,5C106.06,99.35,93.49,138,80.89,176.67
				c-0.32,0.99-0.64,1.98-0.96,2.97"/>
			<path class="st0" d="M136.67,57.23c-0.64,1.98-1.29,3.96-1.94,5.94c-12.35,37.9-24.67,75.78-37.02,113.68
				c-0.2,0.61-0.39,1.21-0.59,1.82"/>
			<polyline class="st0" points="118.64,60.68 118.65,60.68 134.73,63.16 			"/>
			<line class="st0" x1="80.89" y1="176.67" x2="97.12" y2="176.65"/>
		</g>
	</g>
</g>
<path class="st0" d="M1.96,101.3"/>
<path class="st0" d="M94.14,104.74"/>
<g id="XMLID_00000116948794868364006290000004316830096709879458_">
	<g>
		<path class="st1" d="M164.54,225.36c-50.5,0-100.99,0-151.49,0c11.77-13.07,42.91-49.47,75.82-51.36
			C106.77,172.97,132.14,181.75,164.54,225.36z"/>
	</g>
	<g>
		<path class="st2" d="M88.87,174c17.9-1.03,43.27,7.75,75.67,51.36c-50.5,0-100.99,0-151.49,0C24.82,212.29,55.96,175.89,88.87,174
			z"/>
	</g>
</g>
<path class="st0" d="M98.19,118.65"/>
<path class="st0" d="M106.86,49.2"/>
<g id="XMLID_00000056389297951824373660000012298781838281507713_">
	<g>
		<polygon points="154.56,60.51 106.86,49.2 130.71,49.2 		"/>
		<polygon points="152.71,62.15 126.99,62.91 105.09,50.55 		"/>
	</g>
	<g>
		<polygon class="st0" points="154.56,60.51 106.86,49.2 130.71,49.2 		"/>
		<polygon class="st0" points="105.09,50.55 152.71,62.15 126.99,62.91 		"/>
	</g>
</g>
<g id="XMLID_00000012468398261884292230000017597636956285510568_">
	<g>
		<path d="M137.25,21.72l-0.02-0.01c-0.09-0.32-0.14-0.67-0.14-1.02c0-2.11,1.71-3.82,3.82-3.82s3.82,1.71,3.82,3.82
			c0,1.2-0.56,2.27-1.42,2.97l-10.56,32.56l-6.05-1.96L137.25,21.72z"/>
	</g>
	<g>
		<polyline class="st0" points="137.56,20.76 137.25,21.72 126.7,54.26 132.75,56.22 143.31,23.66 143.61,22.74 		"/>
		<path class="st0" d="M143.28,23.69c0.01-0.01,0.02-0.02,0.03-0.03c0.86-0.7,1.42-1.77,1.42-2.97c0-2.11-1.71-3.82-3.82-3.82
			s-3.82,1.71-3.82,3.82c0,0.35,0.05,0.7,0.14,1.02"/>
	</g>
</g>
</svg>
